<svg width="195" height="193" viewBox="0 0 195 193" fill="none" xmlns="http://www.w3.org/2000/svg">
<path d="M99.1875 129.518H86.3306C75.6121 129.518 66.9255 120.832 66.9255 110.113V96.9633C66.9255 93.4497 64.0773 90.5926 60.5548 90.5926H47.4051C36.6866 90.5926 28 81.906 28 71.1875V58.3306C28 47.6121 36.6866 38.9255 47.4051 38.9255H54.9471C57.7154 38.9255 59.9603 41.1704 59.9603 43.9387C59.9603 46.7071 57.7154 48.9519 54.9471 48.9519H47.4051C42.2233 48.9519 38.0175 53.1577 38.0175 58.3395V71.1964C38.0175 76.3782 42.2233 80.5839 47.4051 80.5839H60.5548C69.6051 80.5839 76.9519 87.9218 76.9519 96.9811V110.131C76.9519 115.313 81.1577 119.518 86.3395 119.518H99.1963C104.378 119.518 108.584 115.313 108.584 110.131V100.406C108.584 92.1986 105.39 84.4791 99.5868 78.6762L78.8774 57.958C71.1846 50.2563 66.9433 40.0258 66.9433 29.1387V19.4051C66.9433 8.6866 75.6299 0 86.3484 0H99.2052C109.924 0 118.61 8.6866 118.61 19.4051V32.5548C118.61 36.0684 121.459 38.9255 124.981 38.9255H138.131C148.849 38.9255 157.536 47.6121 157.536 58.3306V71.1875C157.536 81.906 148.849 90.5926 138.131 90.5926H130.598C127.829 90.5926 125.584 88.3477 125.584 85.5794C125.584 82.811 127.829 80.5662 130.598 80.5662H138.131C143.313 80.5662 147.518 76.3604 147.518 71.1786V58.3217C147.518 53.1399 143.313 48.9342 138.131 48.9342H124.963C115.913 48.9342 108.575 41.5963 108.575 32.5459V19.4051C108.575 14.2233 104.369 10.0175 99.1875 10.0175H86.3306C81.1488 10.0175 76.9431 14.2144 76.9431 19.4051V29.1298C76.9431 37.3373 80.1373 45.0567 85.9402 50.8596L106.65 71.569C114.351 79.2618 118.584 89.5012 118.584 100.388V110.113C118.593 120.823 109.906 129.518 99.1875 129.518Z" fill="white"/>
<path d="M19.7451 180.378C14.7671 180.378 10.8748 178.992 8.06843 176.219C5.26202 173.446 3.85881 169.487 3.85881 164.342V144.697H11.9774V164.041C11.9774 167.382 12.6623 169.787 14.032 171.257C15.4018 172.727 17.3229 173.462 19.7952 173.462C22.2675 173.462 24.1886 172.727 25.5584 171.257C26.9282 169.787 27.6131 167.382 27.6131 164.041V144.697H35.6314V164.342C35.6314 169.487 34.2282 173.446 31.4218 176.219C28.6154 178.992 24.7231 180.378 19.7451 180.378ZM41.3989 179.777V174.515L63.0984 148.355L64.1007 151.312H41.7998V144.697H71.3172V149.959L49.6677 176.118L48.6655 173.162H72.0689V179.777H41.3989ZM77.2757 179.777V144.697H93.2121C97.0208 144.697 100.378 145.432 103.285 146.902C106.192 148.338 108.464 150.36 110.101 152.966C111.738 155.572 112.556 158.662 112.556 162.237C112.556 165.778 111.738 168.869 110.101 171.508C108.464 174.114 106.192 176.152 103.285 177.622C100.378 179.059 97.0208 179.777 93.2121 179.777H77.2757ZM85.3943 173.112H92.8112C95.1499 173.112 97.1712 172.677 98.8751 171.809C100.612 170.907 101.949 169.637 102.884 168C103.853 166.363 104.338 164.442 104.338 162.237C104.338 159.998 103.853 158.077 102.884 156.474C101.949 154.837 100.612 153.584 98.8751 152.715C97.1712 151.813 95.1499 151.362 92.8112 151.362H85.3943V173.112ZM135.718 180.378C132.945 180.378 130.372 179.927 128 179.025C125.661 178.123 123.624 176.854 121.886 175.216C120.182 173.579 118.846 171.658 117.877 169.453C116.942 167.248 116.474 164.843 116.474 162.237C116.474 159.631 116.942 157.225 117.877 155.02C118.846 152.815 120.199 150.894 121.936 149.257C123.674 147.62 125.712 146.351 128.05 145.448C130.389 144.546 132.928 144.095 135.668 144.095C138.441 144.095 140.98 144.546 143.285 145.448C145.624 146.351 147.645 147.62 149.349 149.257C151.086 150.894 152.439 152.815 153.408 155.02C154.377 157.192 154.862 159.597 154.862 162.237C154.862 164.843 154.377 167.265 153.408 169.503C152.439 171.708 151.086 173.629 149.349 175.267C147.645 176.87 145.624 178.123 143.285 179.025C140.98 179.927 138.457 180.378 135.718 180.378ZM135.668 173.462C137.238 173.462 138.675 173.195 139.978 172.661C141.314 172.126 142.483 171.358 143.486 170.355C144.488 169.353 145.256 168.167 145.791 166.797C146.359 165.427 146.643 163.907 146.643 162.237C146.643 160.566 146.359 159.046 145.791 157.676C145.256 156.307 144.488 155.121 143.486 154.118C142.517 153.116 141.364 152.348 140.028 151.813C138.691 151.278 137.238 151.011 135.668 151.011C134.097 151.011 132.644 151.278 131.308 151.813C130.005 152.348 128.852 153.116 127.85 154.118C126.848 155.121 126.062 156.307 125.494 157.676C124.96 159.046 124.693 160.566 124.693 162.237C124.693 163.874 124.96 165.394 125.494 166.797C126.062 168.167 126.831 169.353 127.8 170.355C128.802 171.358 129.971 172.126 131.308 172.661C132.644 173.195 134.097 173.462 135.668 173.462ZM168.23 171.759L167.779 162.387L184.567 144.697H193.587L178.453 160.984L173.943 165.795L168.23 171.759ZM160.963 179.777V144.697H169.031V179.777H160.963ZM184.968 179.777L172.489 164.492L177.801 158.729L194.439 179.777H184.968Z" fill="white"/>
</svg>
